<svg xmlns="http://www.w3.org/2000/svg" version="1.1" viewBox="-5.0 -10.0 110.0 135.0">
 <path d="m96.562 40.078h-13.406c-0.59375 0-1.1562-0.29688-1.4375-0.8125-1.5469-2.9062-4.6094-4.8906-8.1406-4.8906-5.0625 0-9.2031 4.125-9.2031 9.2344v8.5938c-0.046875 8.2344-4.0938 15.547-10.281 20.094-4.1562 3.0625-9.2969 4.875-14.844 4.875h-12.406v6.2969c0 1.3594-1.4844 2.1719-2.625 1.4219l-21.875-14.25c-1.0312-0.6875-1.0312-2.1875 0-2.8594l21.891-14.234c1.1406-0.76562 2.625 0.0625 2.625 1.4219v6.2969h12.406c5.0156 0 9.1406-4.0625 9.2188-9.0781v-8.5938c0-4.7969 1.3438-9.2969 3.6719-13.094 0.59375-0.96875 1.25-1.8906 1.9531-2.7656 4.6094-5.6719 11.641-9.2812 19.469-9.2812 12 0 22.047 8.4375 24.516 19.703 0.21875 0.98438-0.51562 1.9219-1.5312 1.9219z"/>
 <path d="m2.3438 32.219 21.891 14.234c1.1406 0.76562 2.625-0.0625 2.625-1.4219v-6.2969h12.406c1.0625 0 2.0781 0.1875 3.0312 0.53125 0.59375-4.3125 2.0625-8.4375 4.3281-12.156 0.5625-0.89062 1.1406-1.7188 1.75-2.5312-2.8281-1.1094-5.8906-1.7344-9.1094-1.7344h-12.406v-6.2969c0-1.3594-1.4844-2.1719-2.625-1.4219l-21.891 14.234c-1.0312 0.6875-1.0312 2.1875 0 2.8594z"/>
 <path d="m96.562 59.922c1 0 1.75 0.9375 1.5312 1.9219-2.4688 11.266-12.516 19.703-24.516 19.703-5.4844 0-10.562-1.7969-14.703-4.8125 4.2344-3.3906 7.5156-7.7656 9.5469-12.688 1.4688 1 3.2344 1.5938 5.1406 1.5938 3.5312 0 6.5938-1.9844 8.1406-4.8906 0.28125-0.51562 0.84375-0.8125 1.4375-0.8125h13.406z" fill="#ffffff"/> </svg>