<svg width="155" height="155" viewBox="0 0 155 155" fill="none" xmlns="http://www.w3.org/2000/svg">
  <!-- Background Circles -->
  <circle opacity="0.37" cx="77.5" cy="77.5" r="77.5" fill="#FFCC00" fill-opacity="0.67"/>
  <circle cx="77" cy="77" r="64.5" stroke="#FFCC00" stroke-opacity="0.67"/>
  <circle cx="77.5" cy="77.5" r="51" stroke="#FFCC00" stroke-opacity="0.99" stroke-width="3"/>
  
  <!-- Centered SVG -->
  <g transform="translate(47.5, 47.5)">
    <svg xmlns="http://www.w3.org/2000/svg" data-name="Layer 1" viewBox="0 0 95 118.75" x="0px" y="0px" width="60" height="75">
      <defs>
        <style>.cls-1{fill-rule:evenodd;}</style>
      </defs>
      <title>a</title>
      <path class="cls-1" d="M46.42,60.748a1.08,1.08,0,1,1,2.16,0v.557a6.751,6.751,0,0,1,5.668,6.661,1.081,1.081,0,0,1-2.161,0,4.587,4.587,0,1,0-9.174,0c0,3.465,2.418,4.041,4.836,4.617,3.249.774,6.5,1.548,6.5,6.718a6.751,6.751,0,0,1-5.668,6.661v.557a1.08,1.08,0,0,1-2.16,0v-.557A6.749,6.749,0,0,1,40.753,79.3a1.08,1.08,0,1,1,2.16,0,4.587,4.587,0,1,0,9.174,0c0-3.465-2.418-4.041-4.836-4.617-3.249-.774-6.5-1.548-6.5-6.718a6.749,6.749,0,0,1,5.667-6.661v-.557Zm11.436,2.53a14.646,14.646,0,1,0,4.289,10.355,14.6,14.6,0,0,0-4.289-10.355ZM47.5,56.828a16.806,16.806,0,1,0,11.883,4.923A16.755,16.755,0,0,0,47.5,56.828ZM47.484,92.5h.032a18.867,18.867,0,1,0-.032,0Zm-9.277,0H12.766a18.573,18.573,0,0,1,5.481-8.271,17.084,17.084,0,0,1,9.391-3.678A21.1,21.1,0,0,0,38.207,92.5ZM67.362,80.551a17.087,17.087,0,0,1,9.392,3.678,18.563,18.563,0,0,1,5.48,8.271H56.793A21.1,21.1,0,0,0,67.362,80.551Zm-19.5-67.127a1.08,1.08,0,0,1,1.08,1.08v4.7c.155-.157.31-.314.463-.472q1.053-1.08,1.983-2.107a1.075,1.075,0,0,1,1.595,1.442q-1.023,1.13-2.034,2.167-.983,1.008-2.007,2v5.238a1.421,1.421,0,0,1-2.16,0V14.5a1.079,1.079,0,0,1,1.08-1.08Zm-5.5,14.744a10.411,10.411,0,0,0,4.423,1.47v9.987A17.123,17.123,0,0,0,44.6,36.809a15.3,15.3,0,0,0-.991-5.18,10.244,10.244,0,0,0-4.036-4.994,12.224,12.224,0,0,0-6.747-1.759,25.461,25.461,0,0,0-9.1,2l0,0a1.077,1.077,0,0,0-.635,1.313c1.777,5.82,4.778,10.139,8.108,12.417a10.654,10.654,0,0,0,3.872,1.7,8.046,8.046,0,0,0,4-.172,9.6,9.6,0,0,0,4.557-3.189,12.829,12.829,0,0,1,3.131,7.074,1.077,1.077,0,0,0,.024.14v6.461a2.039,2.039,0,0,1,2.16.037v-.22c.008-.038.015-.076.02-.115a14,14,0,0,1,3.313-7.1,13.446,13.446,0,0,0,3.9,1.6,9.259,9.259,0,0,0,5.786-.468,11.052,11.052,0,0,0,4.742-4.142,22.776,22.776,0,0,0,3.1-7.7,1.079,1.079,0,0,0-.717-1.322c-5.211-1.623-9.933-1.578-13.313-.257a9.646,9.646,0,0,0-3.24,2.027,7.307,7.307,0,0,0-1.917,3.088,8.9,8.9,0,0,0,.219,5.534,19.669,19.669,0,0,0-1.9,2.606V29.638a10.4,10.4,0,0,0,4.422-1.47,8.414,8.414,0,0,0,3.756-5.6,15.3,15.3,0,0,0-.63-7.653A29.914,29.914,0,0,0,48.612,2.8a1.077,1.077,0,0,0-1.494,0,29.914,29.914,0,0,0-7.881,12.112,15.292,15.292,0,0,0-.631,7.653,8.418,8.418,0,0,0,3.756,5.6Zm-3.2,4.59A22.33,22.33,0,0,1,42.235,34.7a2.077,2.077,0,0,1-.121,2.688l-.084-.076a21.608,21.608,0,0,0-10.836-4.962,1.077,1.077,0,0,1,.337-2.127A24.863,24.863,0,0,1,36.6,31.594a6.112,6.112,0,0,0-1.157-1.5l-.058-.062a1.077,1.077,0,0,1,1.561-1.485l.058.062a6.412,6.412,0,0,1,2.159,4.15Zm13.417,9.013a22.962,22.962,0,0,1,10.1-5.517,1.079,1.079,0,0,1,.49,2.1,19.183,19.183,0,0,0-4.618,1.773c.149.036.3.066.44.092a5.411,5.411,0,0,0,1.892.021,1.076,1.076,0,1,1,.379,2.118,7.521,7.521,0,0,1-2.642-.013,10.879,10.879,0,0,1-2.431-.749,21.534,21.534,0,0,0-2.411,2A5.288,5.288,0,0,1,52.583,41.771Z"  fill="#ffa000"/>
    </svg>
  </g>
</svg>
