<svg xmlns="http://www.w3.org/2000/svg" version="1.1" viewBox="-5.0 -10.0 110.0 135.0">
  <path d="m85.676 71.062c-3.1172 0.003906-5.8516 2.082-6.6875 5.082h-8.457l-3.3438-3.8516c2.2227-1.7188 4.1758-3.7539 5.8008-6.043l3.0547 2.4258c0.36719 0.29688 0.82812 0.46094 1.3008 0.46094h8.332c1.1523 0 2.0859-0.93359 2.0859-2.0859 0-1.1484-0.93359-2.082-2.0859-2.082h-7.6133l-2.9062-2.3242c4.0156-7.9531 4.0156-17.336 0-25.289l2.9062-2.3242h7.6133c1.1523 0 2.0859-0.93359 2.0859-2.082 0-1.1523-0.93359-2.0859-2.0859-2.0859h-8.332c-0.47266 0-0.93359 0.16406-1.3008 0.46094l-3.0547 2.4258c-1.625-2.2891-3.5781-4.3242-5.8008-6.043l3.3438-3.8555h8.457v0.003907c0.93359 3.293 4.1289 5.418 7.5273 5s5.9805-3.2539 6.0859-6.6797c0.10156-3.4219-2.3086-6.4062-5.6758-7.0273-3.3672-0.625-6.6836 1.3047-7.8125 4.5391h-9.5312c-0.60156 0-1.1758 0.26172-1.5703 0.71875l-4.3242 4.9805c-8.5078-4.7422-18.867-4.7422-27.375 0l-4.3242-4.9805c-0.39453-0.45703-0.96875-0.71875-1.5703-0.71875h-9.5312c-1.1289-3.25-4.4609-5.1953-7.8477-4.5703-3.3828 0.62109-5.8086 3.6211-5.7031 7.0625 0.10156 3.4414 2.7031 6.2891 6.1172 6.707 3.418 0.41797 6.625-1.7188 7.5586-5.0312h8.457l3.3438 3.8555v-0.003907c-2.2227 1.7188-4.1758 3.7539-5.8008 6.043l-3.0547-2.4258c-0.36719-0.29688-0.82812-0.46094-1.3008-0.46094h-8.332c-1.1523 0-2.0859 0.93359-2.0859 2.0859 0 1.1484 0.93359 2.082 2.0859 2.082h7.6133l2.9062 2.3242c-4.0156 7.9531-4.0156 17.336 0 25.289l-2.9062 2.3242h-7.6133c-1.1523 0-2.0859 0.93359-2.0859 2.082 0 1.1523 0.93359 2.0859 2.0859 2.0859h8.332c0.47266 0 0.93359-0.16406 1.3008-0.46094l3.043-2.4258c1.625 2.2891 3.582 4.3242 5.8008 6.043l-3.3438 3.8555-8.4453-0.003907c-0.93359-3.293-4.1289-5.418-7.5273-5s-5.9805 3.2539-6.0859 6.6797c-0.10156 3.4219 2.3086 6.4062 5.6758 7.0273 3.3672 0.625 6.6836-1.3047 7.8125-4.5391h9.5312c0.60156 0 1.1758-0.26172 1.5703-0.71875l4.3242-4.9805c8.5078 4.7422 18.867 4.7422 27.375 0l4.3242 4.9805c0.39453 0.45703 0.96875 0.71875 1.5703 0.71875h9.5859c0.85938 2.4492 3.0156 4.2148 5.5859 4.5781 2.5742 0.36328 5.1328-0.74219 6.6367-2.8594 1.5-2.1172 1.6953-4.8984 0.50781-7.207-1.1914-2.3086-3.5703-3.7578-6.168-3.7617zm-56.582-21.062c0-5.543 2.2031-10.863 6.125-14.781 3.918-3.9219 9.2383-6.125 14.781-6.125s10.863 2.2031 14.781 6.125c3.9219 3.918 6.125 9.2383 6.125 14.781s-2.2031 10.863-6.125 14.781c-3.918 3.9219-9.2383 6.125-14.781 6.125-5.543-0.003906-10.855-2.2109-14.777-6.1289-3.918-3.9219-6.125-9.2344-6.1289-14.777zm21.875 2.5742 7.1875-4.043v5.8125l-8.1562 4.625-8.207-4.625v-5.8125l7.1641 4.043c0.64453 0.37109 1.4414 0.37109 2.0859 0zm-1.043-4.168-6.5117-3.668 6.5859-3.707 6.5117 3.668zm0-15.105c-4.4375 0.019531-8.6836 1.8008-11.809 4.9531-3.125 3.1484-4.875 7.4141-4.8555 11.852 0.015625 4.4375 1.793 8.6875 4.9414 11.812 3.1484 3.1289 7.4102 4.875 11.848 4.8633 4.4375-0.015625 8.6914-1.7891 11.82-4.9375 3.1289-3.1445 4.8789-7.4062 4.8672-11.844-0.003906-4.4375-1.7695-8.6914-4.9062-11.832-3.1406-3.1367-7.3945-4.9023-11.832-4.9062zm11.387 24.074-10.27 5.8008c-0.64453 0.375-1.4414 0.375-2.0859 0l-10.293-5.8008h0.003907c-0.64844-0.375-1.0469-1.0664-1.043-1.8125v-11.125c-0.003906-0.74609 0.39453-1.4375 1.043-1.8125l10.289-5.8008c0.64453-0.375 1.4414-0.375 2.0859 0l10.293 5.8008h-0.003907c0.64844 0.375 1.0469 1.0664 1.043 1.8125v11.125c0 0.75-0.40625 1.4453-1.0625 1.8125z"
  fill="#FFFFFF"/>
</svg>
