<svg xmlns="http://www.w3.org/2000/svg" version="1.1" viewBox="-5.0 -10.0 110.0 135.0">
 <path d="m58.828 82.566 10.875 12.133 1.2031-9.625h0.003906c0.074219-0.59766 0.55078-1.0898 1.1758-1.1562l10.18-1.1055-10.125-10.055c-4.3711 3.5273-8.9414 6.7773-13.312 9.8086zm-2.8047-1.2773-6.0195 4.1602-4.8633-3.3633c11.18-12.742 24.223-28.559 30.84-41.266 4.3398-8.3398 5.9102-19.117 1.2656-27.355 13.789 0.84766 17.461 15.414 14.973 27.312-3.6445 17.414-21.215 30.16-36.051 40.414-0.050781 0.03125-0.097657 0.0625-0.14453 0.097656zm-15.094-65.812c1.2148-3.375 3.4648-6.1172 6.4766-8.2969-1.3945-0.6875-2.9531-1.3125-4.6875-1.8711-3.8164 0.23438-7.0312 1.0312-9.6875 2.2578-2.0312 0.93359-3.7344 2.1211-5.1406 3.5078 4.3359 0.63672 8.8398 2.2773 13.039 4.4023zm0.24219 3.1094c-9.0547-4.7695-21.227-8.5078-28.828-0.42969-5.3359 5.6719-6.1602 14.914-4.5508 22.621 2.4141 11.547 10.949 20.895 19.879 28.387 11.254-11.66 31.664-34.316 29.594-49.691-10.992 6.3594-3.4766 5.9453-16.094-0.88672zm-19.207 35.168c-1.0938-1.3477 0.96094-3.0156 2.0547-1.6719 0.89062 1.0977 2.3633 2.3164 1.1484 3.3789-1.2812 1.125-2.457-0.78906-3.2031-1.707zm7.3555-32.613c1.6797 0.45703 0.98438 3.0078-0.69531 2.5508-16.223-4.4219-12.926 15.426-8.0234 23.559 0.90234 1.4961-1.3711 2.8633-2.2695 1.3672-6.8789-11.414-7.3008-32.469 10.988-27.477zm0.99219 73.562-1.2031-9.625h-0.003906c-0.070313-0.59766-0.55078-1.0898-1.1758-1.1562l-10.18-1.1055c11.621-11.383 34.941-33.961 40.922-52.82 3.1992-10.094 1.5781-19.074-9.0625-24.695h7.5156l-0.003906-0.003906c20.617 1.1719 24.418 19.105 16.508 34.301-9.1602 17.59-30.574 40.91-43.316 55.105z" fill-rule="evenodd"/>
<text x="0.0" y="117.5" font-size="5.0" font-weight="bold" font-family="Arbeit Regular, Helvetica, Arial-Unicode, Arial, Sans-serif" fill="#000000">Created by INA</text><text x="0.0" y="122.5" font-size="5.0" font-weight="bold" font-family="Arbeit Regular, Helvetica, Arial-Unicode, Arial, Sans-serif" fill="#000000">from Noun Project</text></svg>