<svg xmlns="http://www.w3.org/2000/svg" version="1.1" viewBox="-5.0 -10.0 110.0 135.0">
 <path d="m64.562 73.273h-10.738c-1.3711 0-2.5703-0.39844-3.6758-1.2188l-3.4336-2.5469c-1.1055-0.82031-2.2812-1.1953-3.6523-1.1953h-11.941c-1.0195 0-1.9023 0.17969-2.7891 0.66406l-1.7031 0.95313v20.039c2.1055 1.0195 4.2734 2.2812 5.625 3.4102 1.1523 0.95312 2.457 1.418 3.9414 1.418h28.191c1.7734 0 3.3008-0.66406 4.4961-1.9727l18.758-20.223c1.8594-1.9883 1.75-5.0938-0.24219-6.9531-1.9922-1.8359-5.1172-1.7266-6.9531 0.26953l-9.0117 9.6992c0.53125 0.84375 0.77344 1.9922 0.77344 2.9883 0 3.5664-2.9023 6.4688-6.4688 6.4688h-13.758c-0.61719 0-1.1055-0.51172-1.1055-1.1289 0-0.62109 0.48828-1.1289 1.1055-1.1289h13.754c2.3477 0 4.2305-1.8828 4.2305-4.2109 0-2.8516-2.5234-5.332-5.4023-5.332zm-20.242-27.016c6.5547 0 11.871 5.3125 11.871 11.867 0 4.6914-2.7227 8.7461-6.6641 10.676l-1.4609-1.0859c-0.97656-0.73047-2.0391-1.2188-3.168-1.4609 0.33203-0.19922 0.55469-0.55469 0.55469-0.97656v-0.84375h0.48828c0.99609 0 1.9023-0.39844 2.5703-1.043 0.023437 0 0.042969-0.019531 0.066406-0.066406 0.6875-0.66016 1.0859-1.5938 1.0859-2.6094 0-1.0195-0.39844-1.9453-1.0859-2.6367-0.6875-0.66016-1.5938-1.082-2.6367-1.082h-3.2344c-0.39844 0-0.77344-0.17969-1.0391-0.44141-0.26562-0.26563-0.42188-0.62109-0.42188-1.0195 0-0.42188 0.15625-0.77344 0.42188-1.0391s0.64453-0.44141 1.0391-0.44141h5.8477c0.62109 0 1.1094-0.48828 1.1094-1.1289 0-0.62109-0.48828-1.1055-1.1094-1.1055h-3.1016v-0.86328c0-0.61719-0.50781-1.1289-1.1289-1.1289-0.62109 0-1.1289 0.51172-1.1289 1.1289v0.86328h-0.48828c-1.0195 0-1.9492 0.42188-2.6133 1.0859h-0.023438c-0.66406 0.66016-1.0859 1.5938-1.0859 2.6328 0 1.0195 0.42188 1.9492 1.0859 2.6133h0.023438-0.023438c0.6875 0.6875 1.6172 1.1055 2.6367 1.1055h3.2344c0.42188 0 0.77344 0.15625 1.0391 0.42578 0.26562 0.26562 0.44531 0.64453 0.44531 1.0391 0 0.39844-0.17578 0.77344-0.44531 1.0391l-0.042969 0.042969c-0.24219 0.24219-0.59766 0.37891-0.99609 0.37891h-5.8242c-0.62109 0-1.1289 0.50781-1.1289 1.1289 0 0.61719 0.50781 1.1289 1.1289 1.1289h3.0781v0.84375c0 0.30859 0.13281 0.57422 0.33203 0.79688-0.15625-0.019531-0.30859-0.019531-0.46484-0.019531h-7.5508c-1.9023-2.1055-3.0547-4.8945-3.0547-7.9297-0.007812-6.5625 5.3086-11.875 11.863-11.875zm-15.523-21.504-1.0625-0.61719-5.2266 3.0117v16.32l6.2891-3.6328zm-4.0977 4.0977c0-0.61719 0.51172-1.1289 1.1289-1.1289s1.1289 0.51172 1.1289 1.1289v11.316c0 0.61719-0.51172 1.1289-1.1289 1.1289s-1.1289-0.51172-1.1289-1.1289zm-4.207 35.742v-7.5312l10.297-2.9688c-0.375 1.2852-0.57422 2.6367-0.57422 4.0312 0 2.3242 0.55469 4.5156 1.5508 6.4688zm0-9.8555v-7.5078l21.902-12.645v9.5469c-4.5625 0.62109-8.4141 3.4336-10.52 7.3086zm24.141-20.152 34.879 20.129v9.8789h-22.633c0.99609-1.9492 1.5703-4.1445 1.5703-6.4688 0-7.7109-6.1562-13.953-13.816-14.129zm21.125 27.75v-10.41l-6.1328-2.9453v13.355zm8.3711 0v-6.3789l-6.1328-2.9453v9.3242zm-43.074-23.809v-24.492l15.305-8.8359v27.77l-2.8359-1.6406zm17.562-4.2539v-28.566l15.656 9.0625-5.1836 1.8555-5.293 8.8828 18.25 18.73v3.5625zm-13.266 1.4883c-0.55469 0.30859-1.2383 0.13281-1.5508-0.39844-0.30859-0.53125-0.10938-1.2188 0.42188-1.5273l1.5078-0.88672c0.55469-0.3125 1.2383-0.13281 1.5508 0.42188 0.30859 0.52734 0.10938 1.2188-0.42188 1.5234zm7.8164-4.5195c-0.53125 0.3125-1.2188 0.13281-1.5273-0.39844-0.3125-0.53125-0.13281-1.2188 0.39844-1.5273l1.5273-0.88672c0.53125-0.30859 1.2188-0.13281 1.5273 0.42187 0.30859 0.53125 0.13281 1.2188-0.42188 1.5273zm-7.8164 0.066406c-0.55469 0.3125-1.2383 0.13281-1.5508-0.42188-0.30859-0.53125-0.10938-1.2188 0.42188-1.5273l1.5078-0.86328c0.55469-0.3125 1.2383-0.13281 1.5508 0.39844 0.30859 0.53125 0.10938 1.2188-0.42188 1.5273zm7.8164-4.5195c-0.53125 0.3125-1.2188 0.13281-1.5273-0.42187-0.3125-0.53125-0.13281-1.2188 0.39844-1.5273l1.5273-0.86328c0.53125-0.30859 1.2188-0.13281 1.5273 0.39844s0.13281 1.2188-0.42188 1.5273zm-7.8164 0.046876c-0.55469 0.30859-1.2383 0.13281-1.5508-0.39844-0.30859-0.53125-0.10938-1.2188 0.42188-1.5273l1.5078-0.88672c0.55469-0.3125 1.2383-0.13281 1.5508 0.39844 0.30859 0.55469 0.10938 1.2383-0.42188 1.5508zm7.8164-4.5195c-0.53125 0.3125-1.2188 0.13281-1.5273-0.39453-0.3125-0.53125-0.13281-1.2188 0.39844-1.5273l1.5273-0.88672c0.53125-0.3125 1.2188-0.13281 1.5273 0.42188 0.30859 0.53125 0.13281 1.2188-0.42188 1.5273zm-7.8164 0.066406c-0.55469 0.3125-1.2383 0.13672-1.5508-0.42187-0.30859-0.53125-0.10938-1.2188 0.42188-1.5273l1.5078-0.89062c0.55469-0.30859 1.2383-0.10547 1.5508 0.42188 0.30859 0.53125 0.10938 1.2188-0.42188 1.5273zm7.8164-4.5195c-0.53125 0.3125-1.2188 0.13281-1.5273-0.42188-0.3125-0.53125-0.13281-1.2188 0.39844-1.5273l1.5273-0.86328c0.53125-0.30859 1.2188-0.13281 1.5273 0.39844 0.30859 0.52734 0.13281 1.2188-0.42188 1.5273zm-7.8164 0.046875c-0.55469 0.3125-1.2383 0.13281-1.5508-0.39844-0.30859-0.53125-0.10938-1.2188 0.42188-1.5508l1.5078-0.85938c0.55469-0.3125 1.2383-0.13672 1.5508 0.39453 0.30859 0.55469 0.10938 1.2383-0.42188 1.5508zm7.8164-4.5156c-0.53125 0.30859-1.2188 0.13281-1.5273-0.39844-0.3125-0.55078-0.13281-1.2383 0.39844-1.5234l1.5273-0.88672c0.53125-0.3125 1.2188-0.13281 1.5273 0.42187 0.30859 0.53125 0.10938 1.2188-0.42188 1.5273zm28.879 27.613-13.953-14.328 5.3594 0.97656 3.5664 6.3984c0.3125 0.55469 0.99609 0.75391 1.5273 0.44141s0.73047-0.97656 0.44141-1.5273l-2.9258-5.207h13.508c0.62109 0 1.1289-0.50781 1.1289-1.1289 0-0.089843 0-0.19922-0.042969-0.28906l-0.77344-4.2969c-0.10937-0.62109-0.6875-1.0195-1.3047-0.90625-0.59766 0.10938-0.99609 0.6875-0.90625 1.3047l0.57422 3.0781-14.016 0.003906-7.043-1.2812 3.4336-5.7773 6.6211-2.3945h9.6328l4.4492 1.6172-2.3242 0.64062h-14.039c-0.53125 0-0.99609 0.375-1.1055 0.92969l-0.79688 4.3867c-0.10938 0.61719 0.30859 1.1953 0.90625 1.3086 0.62109 0.10938 1.1953-0.3125 1.3047-0.90625l0.62109-3.4766h13.266c0.13281 0 0.26562-0.023438 0.37891-0.066407l4.4492-1.2422 3.5 5.9141zm-61.012 25.023h9.6094c2.0352 0 3.7188 1.6602 3.7188 3.7227v20.949c0 2.0352-1.6836 3.7227-3.7188 3.7227h-9.6094z" fill="#ffffff" /></svg>